<?xml version="1.0" encoding="UTF-8" standalone="no"?>
<!-- Created with Inkscape (http://www.inkscape.org/) -->

<svg
   version="1.1"
   id="svg1"
   width="293"
   height="216"
   viewBox="0 0 293 216"
   sodipodi:docname="logo.svg"
   inkscape:version="1.4 (86a8ad7, 2024-10-11)"
   xmlns:inkscape="http://www.inkscape.org/namespaces/inkscape"
   xmlns:sodipodi="http://sodipodi.sourceforge.net/DTD/sodipodi-0.dtd"
   xmlns="http://www.w3.org/2000/svg"
   xmlns:svg="http://www.w3.org/2000/svg">
  <defs
     id="defs1">
    <rect
       x="164.16457"
       y="367.19931"
       width="91.593071"
       height="23.36347"
       id="rect7" />
  </defs>
  <sodipodi:namedview
     id="namedview1"
     pagecolor="#ffffff"
     bordercolor="#000000"
     borderopacity="0.25"
     inkscape:showpageshadow="2"
     inkscape:pageopacity="0.0"
     inkscape:pagecheckerboard="0"
     inkscape:deskcolor="#d1d1d1"
     inkscape:zoom="1.71"
     inkscape:cx="176.60819"
     inkscape:cy="156.43275"
     inkscape:window-width="1920"
     inkscape:window-height="1057"
     inkscape:window-x="-8"
     inkscape:window-y="-8"
     inkscape:window-maximized="1"
     inkscape:current-layer="g1"
     showguides="true">
    <sodipodi:guide
       position="291.81287,219.33918"
       orientation="1,0"
       id="guide1"
       inkscape:locked="false" />
    <sodipodi:guide
       position="297.07602,1.79532"
       orientation="0,-1"
       id="guide2"
       inkscape:locked="false" />
  </sodipodi:namedview>
  <g
     inkscape:groupmode="layer"
     inkscape:label="Image"
     id="g1">
    <path
       id="path1"
       style="fill:#000000"
       d="m 271.9906,1.0464543 c -2.28377,0 -2.23726,0.13969 1.16797,3.54492 4.33656,4.33656 7.11989,11.5132697 9.41211,24.2636697 1.48221,8.24475 1.73315,15.96412 1.68555,51.69141 -0.0572,42.957376 -0.83673,57.627866 -5.48438,103.226556 -1.07785,10.57495 -1.95898,19.46245 -1.95898,19.75 0,0.91781 1.56667,0.56339 3.20898,-0.72656 1.19697,-0.94016 1.99075,-5.216 3.19922,-17.25 8.17528,-81.40938 8.59611,-144.545376 1.13086,-169.683596 C 281.63153,6.7022943 276.91239,1.0464543 271.9906,1.0464543 Z m -10.0664,2 c -1.81737,0 -1.63879,0.41174 1.41601,3.25 3.98967,3.7068597 6.62709,10.3877797 9.05274,22.9355397 2.54192,13.14922 3.07092,67.67279 0.97461,100.404296 -1.65791,25.88639 -4.91214,63.53806 -6.17188,71.41602 -0.63593,3.97693 -0.55577,4.15441 1.72461,3.83203 2.23266,-0.31564 2.46967,-0.97036 3.55664,-9.83789 6.38568,-52.09456 9.18516,-136.380596 5.36328,-161.499996 C 274.66714,12.691394 269.63442,3.0464543 261.9242,3.0464543 Z m -10.26563,1.03515 -2.3457,0.0352 2.5,1.42969 c 1.375,0.78602 2.05,1.45989 1.5,1.49609 -0.55,0.0362 -0.20856,0.52512 0.75781,1.08789 5.43261,3.1636997 9.22576,19.3352797 10.9336,46.5996097 1.79306,28.62455 -0.73015,84.840906 -6.06446,135.066406 l -1.72656,16.25 h 2.29883 c 1.26495,0 2.30078,-0.26909 2.30078,-0.59766 0,-0.32856 0.90019,-9.66606 2,-20.75 7.0591,-71.14206 7.98204,-134.708996 2.32617,-160.152336 -2.99814,-13.4874 -8.00417,-20.5626497 -14.48047,-20.4648497 z m -9.41601,0.96485 c -2.46429,0 -2.44968,0.0422 0.91015,2.99219 9.70168,8.5181897 13.39709,34.2077697 12.30078,85.5078097 -0.66403,31.073856 -2.46628,60.222246 -5.65429,91.470696 -1.09247,10.70822 -1.98633,20.27072 -1.98633,21.25 0,1.89643 0.80195,2.20489 2.625,1.01367 1.61587,-1.05585 2.10077,-4.22377 4.32031,-28.23437 7.59499,-82.160986 7.22237,-140.442786 -1.03906,-162.523436 -2.27993,-6.09368 -7.66381,-11.4765597 -11.47656,-11.4765597 z m -10.92969,1.95508 2.13672,1.84179 c 5.57441,4.8037497 9.53826,18.0677797 11.39453,38.1308597 2.73944,29.6085 -0.76887,112.442506 -6.66406,157.322266 -0.56803,4.32445 -0.44194,4.75 1.42383,4.75 2.59204,0 2.66075,-0.34887 5.15625,-26.5 2.53127,-26.52587 4.77993,-62.06335 5.60156,-88.499996 1.35259,-43.52054 -3.8136,-80.94238 -11.57227,-83.8125 -1.16839,-0.4322097 -2.07743,-1.2135597 -2.01953,-1.7363297 0.0579,-0.52277 -1.14618,-1.07263 -2.67578,-1.22266 z m -8.01758,1.04492 c -2.05956,0 -1.93232,0.31573 1.52539,3.7734397 6.46741,6.4674 9.40013,19.54262 11.01367,49.11132 1.64403,30.12739 -1.6767,95.956366 -7.04101,139.589846 -0.53917,4.38557 -0.98047,8.32307 -0.98047,8.75 0,1.29319 4.03073,0.86725 4.49219,-0.47461 0.23643,-0.6875 1.35616,-11.15 2.48828,-23.25 8.09687,-86.538356 7.70222,-147.270316 -1.08789,-167.499996 -2.28863,-5.26707 -7.21513,-9.9999997 -10.41016,-9.9999997 z m -12.98242,0.67187 3.17188,2.6874997 c 7.15212,6.05904 10.71153,20.72977 12.40234,51.11914 1.58827,28.54626 -0.70919,79.573576 -5.93164,131.771486 l -1.67578,16.75 h 2.125 c 1.86832,0 2.20186,-0.75193 2.78125,-6.25 9.87537,-93.71218 10.04767,-163.537476 0.45898,-185.900386 -2.48356,-5.79221 -5.42582,-8.62131 -9.88086,-9.4980497 z m -8.76953,2.3281297 2.71289,2.13281 2.71094,2.13477 -3.93555,4.11523 c -11.13297,11.64482 -19.0968,29.08027 -28.28906,61.92773 -12.94652,46.262906 -15.87634,54.304136 -22.41797,61.544926 -4.10148,4.53985 -3.74067,5.1921 1.20312,2.17773 7.02129,-4.28109 12.01932,-16.07342 21.73243,-51.265616 10.16046,-36.81305 18.36793,-57.94435 26.72461,-68.80664 1.92036,-2.49616 3.96305,-5.37893 4.53906,-6.40821 1.00507,-1.79596 1.09327,-1.78675 2.1875,0.25781 0.97134,1.81498 0.63565,2.83864 -2.26563,6.91016 -8.77601,12.31583 -16.14991,31.68111 -26.57226,69.7793 -8.742,31.955796 -13.55076,43.545956 -20.31055,48.957026 l -3.25,2.60156 3,-1.08984 c 9.76177,-3.54815 15.3437,-15.08325 25.54297,-52.779296 2.78121,-10.2792 7.30148,-25.43945 10.04492,-33.68945 4.8573,-14.60674 13.22513,-32.4444 15.58594,-33.22656 2.57731,-0.85389 1.61217,4.35623 -2.32617,12.56836 -5.33473,11.12379 -9.80542,24.40994 -17.24024,51.22656 -9.84354,35.504556 -14.10288,46.086146 -20.97851,52.123036 -3.0445,2.6731 -3.17504,2.9669 -1.05274,2.34961 9.6161,-2.79693 14.96286,-13.48253 25.04492,-50.041006 6.50732,-23.59614 13.34434,-44.91743 16.99414,-53 l 2.25782,-5 0.98242,3.33594 c 0.79449,2.69629 0.54128,4.5149 -1.32422,9.5 -2.50049,6.68194 -9.08437,28.5005 -16.49414,54.662096 -5.41421,19.11591 -10.99712,31.81295 -16.10352,36.62891 -3.89037,3.66909 -3.80284,4.14039 0.36524,1.96289 8.7357,-4.56375 13.19937,-14.31892 23.77539,-51.966796 3.57264,-12.71763 7.48437,-26.04804 8.69336,-29.62304 l 2.19922,-6.5 0.54687,5.98633 c 0.47673,5.20755 -0.20846,8.71652 -5.27148,26.94336 -9.3441,33.638746 -12.89769,42.889046 -19.39063,50.474606 -3.8142,4.45602 -3.72653,4.85788 0.58008,2.63085 6.22802,-3.22064 12.62333,-16.67143 19.61719,-41.261706 2.43867,-8.57433 4.66359,-15.81788 4.94336,-16.09766 0.27977,-0.27977 0.50781,3.29625 0.50781,7.94726 0,6.62712 -0.66732,10.612346 -3.08398,18.417966 -3.9179,12.65451 -8.81936,22.92046 -13.23047,27.70899 -3.66194,3.97526 -2.95928,4.90715 1.49023,1.97265 3.83372,-2.52839 6.43642,-6.14747 10.38867,-14.4414 l 3.47071,-7.28125 -0.57422,10.5 c -1.46646,26.82191 -5.6367,75.49233 -7.04688,82.25 -0.58348,2.79608 0.71585,3.59195 3.24219,1.98437 1.64952,-1.04963 6.14636,-46.728 8.3418,-84.73437 1.293,-22.38388 1.27056,-65.618106 -0.041,-78.644526 -2.43667,-24.19939 -7.94324,-37.85547 -15.26562,-37.85547 z m -2.55274,0.11133 c -0.45253,-0.12382 -2.41691,0.54908 -5.80078,2.04297 -5.71455,2.52278 -14.42825,11.19937 -19.15625,19.07617 -1.80366,3.00487 -5.27396,9.89165 -7.71093,15.30273 -2.43698,5.41108 -4.62374,9.19182 -4.86133,8.40234 -5.90776,-19.63024 -13.36231,-33.775 -19.88477,-37.73632 -3.782,-2.29693 -11.68466,-4.16098 -8.33008,-1.96485 9.59547,6.28183 15.51395,15.93496 22.21875,36.25 2.36254,7.15832 4.30572,12.37878 4.32032,11.59961 0.0146,-0.77916 0.23914,-1.20421 0.49804,-0.94531 0.64713,0.64712 -2.68478,10.86133 -3.54297,10.86133 -0.37973,0 -1.21675,-2.09448 -1.86132,-4.6543 -2.15566,-8.56091 -7.23875,-23.77372 -10.30469,-30.8457 -5.5481,-12.79741 -11.85159,-19.8515 -18.8457,-21.08789 l -3.41602,-0.60352 3,1.92969 c 8.81285,5.66643 15.87927,19.27501 23.40039,45.06445 2.77527,9.51621 5.30757,17.72542 5.62695,18.24219 0.31938,0.51677 -1.32306,7.79003 -3.65039,16.16406 -2.32732,8.374036 -4.36438,14.789806 -4.52539,14.257816 -0.16102,-0.53202 -3.03768,-11.3168 -6.39258,-23.966796 -13.84475,-52.20305 -22.16437,-68.63564 -34.66015,-68.46094 l -2.79883,0.0391 3.01953,1.31641 c 9.37944,4.08688 17.36346,20.86857 26.92969,56.60547 8.1577,30.474976 10.73081,39.477106 11.5332,40.332026 0.42942,0.45753 0.0776,3.03488 -0.7832,5.72656 l -1.56641,4.89258 -2.38476,-7.22461 c -1.31164,-3.97421 -5.47788,-18.70156 -9.25977,-32.726556 -10.34676,-38.37061 -15.56106,-52.17167 -23.21484,-61.45703 -3.25884,-3.95354 -8.094115,-6.57355 -11.992195,-6.49805 -1.93322,0.0374 -1.72649,0.33651 1.34766,1.96094 4.842115,2.55864 8.233605,6.76678 12.816405,15.90234 4.60789,9.18558 9.16886,23.15625 16.02735,49.0918 6.46887,24.462176 11.91258,41.742656 13.71875,43.548826 1.18851,1.18852 1.15957,1.83685 -0.19336,4.45312 -0.87112,1.68457 -1.98409,2.81488 -2.47461,2.51172 -2.39853,-1.48237 -8.68653,-21.15205 -18.99414,-59.421866 -9.64923,-35.82552 -16.843615,-50.83133 -26.468755,-55.20313 -5.62392,-2.55443 -9.28025,-2.44415 -4.40235,0.13281 10.71906,5.66281 17.591545,21.14309 29.416025,66.26172 6.62912,25.294686 11.48102,40.250446 15.41601,47.515626 3.82008,7.05303 2.74591,10.80325 -1.70507,5.95117 -5.44094,-5.93125 -9.36482,-16.83355 -19.18164,-53.296876 -8.19815,-30.45099 -11.805185,-41.19949 -17.267585,-51.45312 -5.86928,-11.0174 -10.29859,-15.02726 -16.53711,-14.97656 l -2.79883,0.0215 3.34766,1.65039 c 6.85226,3.37619 14.3757,16.6279 20.56445,36.21875 1.40803,4.45722 5.473715,19.05048 9.035165,32.42969 8.98703,33.761386 13.07343,44.626286 19.23242,51.136716 1.55065,1.63914 2.70781,3.32664 2.57031,3.75 -0.44853,1.38104 1.94637,0.8129 5.29688,-1.25782 1.80509,-1.11562 4.63095,-4.15312 6.28124,-6.75 5.31141,-8.35792 6.94158,-13.18634 20.10157,-59.531246 10.59582,-37.31479 22.12997,-59.06445 35.97656,-67.8457 2.66551,-1.69041 3.72401,-2.61055 3.27148,-2.73437 z m 3.51563,1.85937 c -0.87523,0.039 -3.48622,1.86513 -7.06641,5.44531 -12.78877,12.78877 -20.91286,29.95897 -30.70703,64.89453 -12.89662,46.001986 -16.61851,55.841476 -23.6289,62.453126 -3.25867,3.07332 -3.4149,3.41424 -1.25586,2.75391 4.91137,-1.50212 8.95225,-5.9077 12.85742,-14.01758 4.02061,-8.3496 6.92969,-17.29667 14.63281,-44.999996 11.51222,-41.40227 18.54391,-57.14583 31.82227,-71.25 3.36138,-3.57044 4.22093,-5.31828 3.3457,-5.2793 z m -89.27539,5.0586 c -1.01686,0.0255 -0.7325,0.68692 1.68164,1.96289 10.83612,5.72732 18.80869,23.48207 29.97266,66.75781 1.87998,7.2875 3.72963,13.249996 4.11132,13.249996 0.38169,0 0.97022,-1.912496 1.3086,-4.249996 0.48716,-3.36538 -0.52119,-8.30887 -4.84571,-23.75 -9.67496,-34.54546 -16.23132,-47.63394 -26.10546,-52.11914 -2.7884,-1.26659 -5.10619,-1.87705 -6.12305,-1.85156 z m -46.724615,6.96093 c -2.73095,-0.0916 -5.42066,2.06751 -11.48047,7.4961 -20.84194,18.6709 -36.6342,69.639756 -42.14258,136.013666 -0.59338,7.15 -1.30436,15.3625 -1.58203,18.25 -0.48021,4.99372 -0.39071,5.25 1.85547,5.25 2.29316,0 2.38207,-0.31089 3.04492,-10.75 3.02361,-47.6177 12.91692,-95.914096 25.1875,-122.955076 3.24781,-7.15729 10.59442,-18.9646 14.1836,-22.79492 5.94678,-6.34631 9.83522,-9.36805 11.07226,-8.60352 0.98832,0.61082 0.012,2.19212 -3.82812,6.19727 -20.2792,21.15081 -34.30173,68.552326 -40.5,136.906246 -1.92763,21.2577 -1.93235,21 0.45117,21 2.27504,0 2.65959,-1.73646 3.55078,-16 1.21671,-19.47337 6.11168,-54.36916 10.07422,-71.82813 5.63451,-24.825656 14.20992,-47.631256 22.70312,-60.374996 6.56715,-9.85376 10.26569,-13.64642 11.80664,-12.10547 0.75224,0.75223 -0.13463,2.63783 -3.02734,6.43555 -5.36886,7.04856 -13.06664,22.1249 -17.03906,33.37305 -9.3044,26.34603 -16.96966,68.900686 -19.58985,108.749996 -0.61953,9.4222 -0.51151,10.75 0.8711,10.75 2.487,0 2.86467,-1.40952 3.84375,-14.33789 4.72545,-62.39734 18.44526,-115.908656 35.42773,-138.173826 2.66821,-3.49821 2.89475,-3.59879 3.75195,-1.67774 0.67233,1.50677 0.387,2.78616 -1.08398,4.86719 -6.59985,9.33695 -15.09023,30.83823 -20.26562,51.32227 -6.45473,25.547596 -12.89709,70.166736 -12.95899,89.749996 -0.0177,5.58992 0.19169,6.25 1.98047,6.25 1.40592,0 2.00186,-0.66834 2.00586,-2.25 0.003,-1.2375 0.67462,-9.85052 1.49414,-19.14063 4.50877,-51.11155 13.66995,-91.141186 26.84961,-117.312496 4.12314,-8.18747 5.34595,-9.36062 6.19922,-5.96093 0.40807,1.62587 -0.37503,4.35872 -2.39258,8.35546 -6.21733,12.31645 -13.45008,36.3985 -18.11133,60.308596 -2.44145,12.52352 -6.67024,45.6877 -7.52344,59 -0.33487,5.225 -0.83537,10.9625 -1.11132,12.75 -0.44862,2.90606 -0.24572,3.25 1.9082,3.25 2.3519,0 2.4251,-0.2541 3.11523,-10.75 3.09198,-47.0245 12.77533,-95.414226 24.17383,-120.806636 l 2.66797,-5.94336 1.20899,2.86523 c 1.06209,2.51566 0.80323,3.94914 -2.12891,11.74024 -8.83812,23.48411 -16.03539,59.458706 -19.28516,96.394526 -2.48479,28.24138 -2.49702,25.69772 0.11133,25.32812 1.93358,-0.27399 2.35716,-0.99189 2.55664,-4.32812 2.58006,-43.14929 10.34823,-88.478656 19.52539,-113.937496 l 2.14063,-5.9375 1.30664,3.20312 c 1.17665,2.88364 0.96019,4.41872 -2.17383,15.4375 -4.58812,16.1312 -7.9196,33.119546 -10.92969,55.734376 -2.67129,20.06939 -5.11133,47.83007 -4.27734,48.66406 0.28533,0.28531 1.3932,0.24135 2.46094,-0.0977 1.73574,-0.5509 2.01629,-1.9644 2.64843,-13.34179 0.84528,-15.21359 3.81868,-40.35619 6.65039,-56.22461 2.7325,-15.312526 7.89329,-36.999996 8.80469,-36.999996 0.40137,0 1.78828,4.1625 3.08008,9.25 4.96678,19.560706 11.041345,39.925576 14.103515,47.281246 3.80422,9.13811 9.28899,15.46875 13.40235,15.46875 h 2.78906 l -2.63476,-2.07227 c -6.47444,-5.09279 -10.8266,-16.45832 -21.794935,-56.927726 -11.56329,-42.66462 -18.18963,-58.02898 -27.44726,-63.63281 -2.40586,-1.45632 -4.06065,-2.322 -5.69922,-2.37696 z m -6.88867,0.35742 c -0.13362,-0.10827 -0.89855,0.11872 -2.25586,0.63477 -13.41291,5.09957 -25.56844,21.17034 -34.89063,46.13281 -9.66079,25.86918 -18.1347195,71.877326 -20.3046795,110.238276 -0.6398,11.31067 -0.58262,11.83736 1.23828,11.48829 1.63022,-0.31257 2.00991,-1.60254 2.60351,-8.85352 2.42957,-29.67798 5.4640795,-53.04764 9.4121095,-72.48828 8.7185,-42.931116 22.83423,-72.867606 39.42969,-83.621096 3.46036,-2.24223 4.99028,-3.35078 4.76758,-3.53125 z m 96.828125,50.07618 c 0.14715,-0.0856 0.22651,0.10343 0.22657,0.57617 0,0.825 -0.3867,2.4 -0.85938,3.5 -0.54172,1.26064 -0.85938,1.44548 -0.85938,0.5 0,-0.825 0.38669,-2.4 0.85938,-3.5 0.27085,-0.63032 0.48567,-0.99057 0.63281,-1.07617 z" />
    <text
       xml:space="preserve"
       id="text7"
       style="text-align:start;writing-mode:lr-tb;direction:ltr;white-space:pre;shape-inside:url(#rect7);display:inline;fill:#000000;paint-order:stroke fill markers" />
  </g>
</svg>
